<svg id="success" xmlns="http://www.w3.org/2000/svg" width="496" height="496" viewBox="0 0 496 496">
  <g id="Group_2" data-name="Group 2">
    <g id="Group_1" data-name="Group 1">
      <path id="Path_1" data-name="Path 1" d="M248,0C111.033,0,0,111.033,0,248S111.033,496,248,496,496,384.967,496,248C495.841,111.1,384.9.159,248,0Zm0,480C119.87,480,16,376.13,16,248S119.87,16,248,16,480,119.87,480,248C479.859,376.072,376.072,479.859,248,480Z" fill="#28ef65"/>
      <path id="Path_2" data-name="Path 2" d="M370.344,158.344,208,320.688l-82.344-82.344a8,8,0,0,0-11.312,11.312l88,88a8,8,0,0,0,11.312,0l168-168a8,8,0,0,0-11.312-11.312Z" fill="#28ef65"/>
    </g>
  </g>
</svg>
